<svg width="1441" height="961" viewBox="0 0 1441 961" fill="none" xmlns="http://www.w3.org/2000/svg">
<line x1="80.5" y1="1" x2="80.5" y2="961" stroke="#EAE9E9"/>
<line x1="0.5" y1="1" x2="0.500042" y2="961" stroke="#EAE9E9"/>
<line x1="160.5" y1="1" x2="160.5" y2="961" stroke="#EAE9E9"/>
<line x1="240.5" y1="1" x2="240.5" y2="961" stroke="#EAE9E9"/>
<line x1="320.5" y1="1" x2="320.5" y2="961" stroke="#EAE9E9"/>
<line x1="400.5" y1="1" x2="400.5" y2="961" stroke="#EAE9E9"/>
<line x1="480.5" y1="1" x2="480.5" y2="961" stroke="#EAE9E9"/>
<line x1="560.5" y1="1" x2="560.5" y2="961" stroke="#EAE9E9"/>
<line x1="640.5" y1="1" x2="640.5" y2="961" stroke="#EAE9E9"/>
<line x1="720.5" y1="1" x2="720.5" y2="961" stroke="#EAE9E9"/>
<line x1="800.5" y1="1" x2="800.5" y2="961" stroke="#EAE9E9"/>
<line x1="880.5" y1="1" x2="880.5" y2="961" stroke="#EAE9E9"/>
<line x1="960.5" y1="1" x2="960.5" y2="961" stroke="#EAE9E9"/>
<line x1="1040.5" y1="1" x2="1040.5" y2="961" stroke="#EAE9E9"/>
<line x1="1120.5" y1="1" x2="1120.5" y2="961" stroke="#EAE9E9"/>
<line x1="1200.5" y1="1" x2="1200.5" y2="961" stroke="#EAE9E9"/>
<line x1="1280.5" y1="1" x2="1280.5" y2="961" stroke="#EAE9E9"/>
<line x1="1360.5" y1="1" x2="1360.5" y2="961" stroke="#EAE9E9"/>
<line x1="1440.5" y1="1" x2="1440.5" y2="961" stroke="#EAE9E9"/>
<line x1="4.37114e-08" y1="880.5" x2="1440" y2="880.5" stroke="#EAE9E9"/>
<line x1="4.37114e-08" y1="960.5" x2="1440" y2="960.5" stroke="#EAE9E9"/>
<line x1="4.37114e-08" y1="800.5" x2="1440" y2="800.5" stroke="#EAE9E9"/>
<line x1="4.37114e-08" y1="720.5" x2="1440" y2="720.5" stroke="#EAE9E9"/>
<line x1="4.37114e-08" y1="640.5" x2="1440" y2="640.5" stroke="#EAE9E9"/>
<line x1="4.37114e-08" y1="560.5" x2="1440" y2="560.5" stroke="#EAE9E9"/>
<line x1="4.37114e-08" y1="480.5" x2="1440" y2="480.5" stroke="#EAE9E9"/>
<line x1="4.37114e-08" y1="400.5" x2="1440" y2="400.5" stroke="#EAE9E9"/>
<line x1="4.37114e-08" y1="320.5" x2="1440" y2="320.5" stroke="#EAE9E9"/>
<line x1="4.37114e-08" y1="240.5" x2="1440" y2="240.5" stroke="#EAE9E9"/>
<line x1="4.37114e-08" y1="160.5" x2="1440" y2="160.5" stroke="#EAE9E9"/>
<line x1="4.37114e-08" y1="80.5" x2="1440" y2="80.5001" stroke="#EAE9E9"/>
<line x1="4.37114e-08" y1="0.5" x2="1440" y2="0.500126" stroke="#EAE9E9"/>
</svg>
