<?xml version="1.0" encoding="UTF-8" standalone="no"?>
<!-- Created with Inkscape (http://www.inkscape.org/) -->

<svg
   xmlns:dc="http://purl.org/dc/elements/1.1/"
   xmlns:cc="http://creativecommons.org/ns#"
   xmlns:rdf="http://www.w3.org/1999/02/22-rdf-syntax-ns#"
   xmlns:svg="http://www.w3.org/2000/svg"
   xmlns="http://www.w3.org/2000/svg"
   xmlns:sodipodi="http://sodipodi.sourceforge.net/DTD/sodipodi-0.dtd"
   xmlns:inkscape="http://www.inkscape.org/namespaces/inkscape"
   width="343.07608"
   height="343.34357"
   id="svg2"
   version="1.1"
   inkscape:version="0.48.5 r10040"
   sodipodi:docname="emacs.svg">
  <defs
     id="defs4" />
  <sodipodi:namedview
     id="base"
     pagecolor="#ffffff"
     bordercolor="#666666"
     borderopacity="1.0"
     inkscape:pageopacity="0.0"
     inkscape:pageshadow="2"
     inkscape:zoom="0.35"
     inkscape:cx="12.036404"
     inkscape:cy="321.67179"
     inkscape:document-units="px"
     inkscape:current-layer="layer1"
     showgrid="false"
     inkscape:window-width="1366"
     inkscape:window-height="664"
     inkscape:window-x="-8"
     inkscape:window-y="-8"
     inkscape:window-maximized="1"
     fit-margin-top="0"
     fit-margin-left="0"
     fit-margin-right="0"
     fit-margin-bottom="0" />
  <metadata
     id="metadata7">
    <rdf:RDF>
      <cc:Work
         rdf:about="">
        <dc:format>image/svg+xml</dc:format>
        <dc:type
           rdf:resource="http://purl.org/dc/dcmitype/StillImage" />
        <dc:title></dc:title>
      </cc:Work>
    </rdf:RDF>
  </metadata>
  <g
     inkscape:label="Layer 1"
     inkscape:groupmode="layer"
     id="layer1"
     transform="translate(-362.9636,-534.9761)">
    <g
       transform="matrix(0.38250042,0,0,0.38250042,728.66403,471.00612)"
       id="g3009">
      <path
         style="fill:#6045a0"
         d="m -534.661,1064.5477 c -1.925,-0.2183 -9.35,-0.8868 -16.5,-1.4854 -49.83914,-4.1724 -105.67445,-19.9575 -153.08381,-43.2778 -20.97737,-10.3187 -29.84515,-15.3435 -48.1997,-27.31183 -104.83117,-68.35667 -176.85954,-177.45408 -197.62853,-299.33708 -4.97979,-29.22395 -6.0082,-42.32428 -6.00547,-76.5 0.003,-33.38061 1.13642,-48.84566 5.44293,-74.24569 20.19433,-119.10723 86.7196,-224.71919 185.0353,-293.75215 26.25539,-18.43538 63.75555,-38.73558 92.43928,-50.04073 106.07432,-41.80722 224.92568,-41.80722 331,0 17.59427,6.93445 51.9643,24.12177 67.79964,33.90436 71.4006,44.10912 127.81259,104.54958 165.32789,177.13421 26.22496,50.74008 41.46566,101.39718 48.06369,159.75431 2.44575,21.63174 2.42393,73.35054 -0.0398,94.24569 -8.86773,75.20946 -32.74707,141.13871 -72.98256,201.5 -38.28119,57.42945 -91.80209,107.37125 -151.58509,141.44811 -52.20696,29.7585 -112.53984,49.2601 -173.70644,56.1478 -12.99612,1.4634 -67.01433,2.765 -75.37737,1.8162 z m 156.5,-174.86347 c 42.40636,-4.15114 76.05113,-15.0448 82.00105,-26.55067 5.56949,-10.77021 -3.01173,-20.90071 -28.01736,-33.0757 -23.81532,-11.59544 -57.35898,-21.30342 -134.3734,-38.88944 -87.11356,-19.89212 -135.99487,-38.88038 -158.80221,-61.68771 -8.44676,-8.44676 -11.71866,-14.93689 -11.76909,-23.34512 -0.0553,-9.22012 3.41778,-15.89428 12.85943,-24.71174 17.4801,-16.32449 55.91293,-32.16164 94.10158,-38.77676 6.1978,-1.0736 33.13003,-2.4825 86.5,-4.52504 42.625,-1.63133 79.9625,-2.97064 82.97222,-2.97625 5.40494,-0.0101 5.44797,-0.0336 3.5,-1.91532 -1.08472,-1.04781 -36.62222,-28.34138 -78.97222,-60.65238 -42.35,-32.311 -79.47151,-61.0412 -82.49224,-63.84489 -15.16543,-14.07578 -21.58097,-24.28029 -20.74363,-32.99465 0.42985,-4.47356 1.01703,-5.53411 5.12128,-9.24993 8.66644,-7.84624 23.45209,-11.06452 55.11459,-11.9964 22.75118,-0.6696 55.08204,0.76737 72.83158,3.23706 5.95737,0.82891 22.15737,3.68822 36,6.35402 33.10052,6.37445 41.03036,7.36627 54.71598,6.8436 13.6416,-0.52098 21.16104,-2.78968 31.07442,-9.37548 10.87936,-7.22754 18.37195,-18.81253 21.39514,-33.08105 1.88143,-8.87973 1.85248,-15.62978 -0.10776,-25.11988 -5.97944,-28.94835 -28.02572,-51.06262 -58.99133,-59.17328 -17.16575,-4.49614 -20.57028,-4.52988 -93.74722,-0.92913 -37.30606,1.83568 -67.00606,3.64513 -66,4.02099 1.00605,0.37586 12.69445,2.76479 25.97421,5.30873 57.57726,11.02979 94.24529,22.77915 105.87914,33.92633 3.83409,3.67371 4.47584,4.85968 4.47584,8.27147 0,9.98106 -9.72861,13.35119 -38.5,13.33696 -35.92637,-0.0178 -68.09688,-3.35923 -134.5,-13.97009 -47.66106,-7.61598 -63.92848,-9.00422 -82.92083,-7.07634 -42.4948,4.31355 -53.15386,25.56235 -32.51965,64.82782 24.60838,46.82802 70.81095,89.04881 147.82729,135.08738 9.28774,5.55199 17.09416,10.30188 17.34758,10.55531 0.25343,0.25343 -2.84564,-0.82242 -6.88681,-2.39076 -28.22307,-10.95314 -78.22099,-16.67518 -122.84758,-14.05936 -91.08586,5.33905 -154.78433,31.70779 -168.09742,69.58592 -8.40894,23.92493 3.37734,52.57023 34.4816,83.80389 55.12843,55.35776 157.19277,96.73984 258.08911,104.64245 15.27924,1.19673 25.77595,3.21731 32.13471,6.1858 12.34054,5.761 10.59381,12.25734 -4.108,15.27825 -8.32603,1.71083 -22.40567,2.98302 -55.5,5.01482 -48.57808,2.9824 -76.35226,3.85047 -126.17088,3.94341 -27.86899,0.052 -50.14399,0.37726 -49.5,0.72284 0.64398,0.34558 6.12088,1.78922 12.17088,3.20809 36.89717,8.65329 98.87747,14.82178 181.5,18.06349 20.65402,0.81037 82.25927,-0.35935 97.5,-1.85126 z"
         id="path3002"
         inkscape:connector-curvature="0" />
      <path
         style="fill:#401f8b"
         d="m -531.661,1028.554 c -1.925,-0.2186 -9.09735,-0.882 -15.93855,-1.4742 -6.84121,-0.5922 -19.21621,-2.1889 -27.5,-3.5482 -163.13841,-26.76894 -295.21121,-149.51739 -333.99556,-310.41542 -8.03103,-33.317 -11.05451,-59.84182 -11.05451,-96.98059 0,-29.10434 1.01714,-42.55141 5.10576,-67.5 26.71736,-163.02849 149.53517,-295.15722 310.40227,-333.93411 33.317,-8.03103 59.84182,-11.05451 96.98059,-11.05451 29.10434,0 42.55141,1.01714 67.5,5.10576 163.02849,26.71736 295.15722,149.53517 333.93411,310.40227 8.03103,33.317 11.05451,59.84182 11.05451,96.98059 0,29.10434 -1.01714,42.55141 -5.10576,67.5 -26.71916,163.03948 -149.52894,295.15217 -310.42511,333.93991 -15.43943,3.7221 -39.02886,7.7997 -55.45775,9.5864 -10.05739,1.0937 -58.97296,2.1333 -65.5,1.3921 z m 159,-138.82062 c 36.98955,-4.25944 64.45727,-12.86097 73.94756,-23.15673 2.19157,-2.37757 4.28393,-5.51521 4.6497,-6.97255 2.18394,-8.70152 -7.76778,-18.98052 -28.00398,-28.92495 -27.00981,-13.27309 -51.52821,-20.60634 -124.042,-37.09989 -97.81245,-22.24783 -144.46393,-39.65684 -169.81255,-63.36923 -16.42299,-15.3629 -17.14014,-31.45563 -2.07323,-46.52254 17.95029,-17.9503 60.89701,-35.57197 99.8345,-40.96357 6.86116,-0.95006 38.27871,-2.48585 83.5,-4.08176 39.875,-1.40723 76.1,-2.8844 80.5,-3.28259 l 8,-0.72398 -80.5,-61.43275 c -92.67685,-70.7254 -98.31276,-75.68596 -103.67587,-91.25252 -6.96343,-20.21149 24.60473,-29.54427 90.52834,-26.7637 33.73454,1.42288 41.77275,2.42938 82.64753,10.34864 38.32324,7.42491 51.12405,8.11296 66,3.54755 17.99978,-5.52411 31.25198,-19.37966 36.01091,-37.65041 0.819,-3.14436 1.48909,-10.01901 1.48909,-15.27701 0,-36.97911 -28.41117,-67.28936 -69.88099,-74.55203 -11.87105,-2.07899 -25.83109,-1.84679 -92.11901,1.53223 -32.175,1.64012 -59.5875,2.98607 -60.91667,2.99102 -5.21367,0.0194 -0.43177,1.20103 24.50021,6.05424 63.20339,12.30304 99.83336,24.08926 110.36078,35.51017 4.62037,5.0125 5.22175,8.69244 2.0744,12.69364 -4.89728,6.22588 -18.68139,7.94856 -53.59836,6.6985 -32.6088,-1.16743 -56.29598,-3.73413 -101.92036,-11.04391 -53.12685,-8.51181 -57.42187,-9.04358 -77.5,-9.59546 -15.23593,-0.41879 -21.48718,-0.18923 -28.58756,1.0498 -23.51038,4.10258 -34.41037,13.40994 -35.24788,30.09773 -0.47237,9.41203 1.70007,17.51862 8.31936,31.04427 22.8542,46.69952 71.5409,92.22086 146.01608,136.52285 16.92195,10.06611 17.58078,10.5911 9.97279,7.94669 -40.88612,-14.21134 -109.8639,-17.02062 -170.11716,-6.92843 -46.41241,7.7739 -84.94789,24.06283 -103.53192,43.76289 -11.50677,12.19778 -15.82371,22.36617 -15.82371,37.27217 0,19.82094 10.97426,40.44265 34.48464,64.8 33.66656,34.87943 81.92158,63.03191 142.51536,83.14493 41.11203,13.64641 76.15231,20.88969 118.5,24.4955 18.38229,1.56521 25.86231,3.11309 33.32962,6.89706 5.80541,2.94183 7.53591,4.85929 6.71624,7.44185 -1.54462,4.86665 -13.09373,7.34044 -44.54586,9.54161 -59.98567,4.19809 -97.58292,5.56566 -155.5,5.65619 -30.80387,0.0481 -46.18088,0.40131 -44.62298,1.02484 19.03505,7.61858 87.58674,16.4964 153.62298,19.89502 11.55,0.59443 23.7,1.22965 27,1.41159 3.3,0.18195 27.825,0.23 54.5,0.10678 37.67365,-0.17403 51.73674,-0.59676 63,-1.89375 z"
         id="path3000"
         inkscape:connector-curvature="0" />
    </g>
  </g>
</svg>
