<svg width="548" height="206" viewBox="0 0 548 206" fill="none" xmlns="http://www.w3.org/2000/svg">
<g clip-path="url(#clip0_18:179)">
<path d="M15.7249 181.838C17.65 182.516 19.7168 182.686 21.7264 182.331C23.736 181.976 25.6206 181.108 27.1985 179.811C31.2172 176.428 32.4774 170.857 33.5023 165.697L36.5346 150.434L30.1862 154.818C25.6205 157.971 20.9523 161.224 17.7914 165.79C14.6304 170.357 13.2514 176.59 15.7904 181.531" fill="#E6E6E6"/>
<path d="M16.7052 201.379C15.9061 195.541 15.084 189.627 15.6458 183.727C16.1437 178.487 17.738 173.369 20.9837 169.171C22.7065 166.948 24.8029 165.043 27.1785 163.542C27.7978 163.15 28.368 164.134 27.7513 164.524C23.6407 167.129 20.4612 170.976 18.6714 175.51C16.6946 180.552 16.3772 186.049 16.7177 191.405C16.9235 194.644 17.3608 197.862 17.8001 201.076C17.8347 201.221 17.8131 201.374 17.7395 201.504C17.6659 201.634 17.5458 201.731 17.4036 201.776C17.2584 201.815 17.1038 201.795 16.9731 201.721C16.8424 201.646 16.7463 201.523 16.7056 201.378L16.7052 201.379Z" fill="#F2F2F2"/>
<path d="M22.4565 192.011C23.282 193.27 24.4169 194.294 25.7517 194.985C27.0865 195.676 28.5764 196.011 30.0776 195.957C33.9366 195.774 37.1524 193.074 40.0471 190.51L48.6106 182.927L42.9432 182.655C38.8674 182.459 34.6865 182.276 30.8044 183.538C26.9224 184.8 23.3422 187.832 22.6325 191.862" fill="#E6E6E6"/>
<path d="M14.4466 204.735C18.2935 197.909 22.7551 190.322 30.7281 187.898C32.9447 187.226 35.269 186.985 37.5758 187.188C38.303 187.251 38.1214 188.375 37.3957 188.313C33.5289 187.991 29.6695 189.015 26.4673 191.212C23.457 193.402 20.9049 196.164 18.9559 199.341C17.7119 201.241 16.5978 203.221 15.4836 205.198C15.1276 205.83 14.0864 205.374 14.4466 204.735Z" fill="#F2F2F2"/>
<path d="M367.604 172.915C370.255 173.85 373.101 174.084 375.868 173.595C378.636 173.106 381.231 171.911 383.404 170.124C388.938 165.466 390.673 157.794 392.084 150.688L396.26 129.671L387.518 135.707C381.231 140.048 374.802 144.529 370.45 150.817C366.097 157.105 364.198 165.689 367.694 172.493" fill="#E6E6E6"/>
<path d="M368.954 199.824C367.853 191.785 366.721 183.642 367.495 175.516C368.181 168.3 370.376 161.253 374.845 155.472C377.218 152.411 380.105 149.787 383.376 147.72C384.229 147.18 385.014 148.536 384.165 149.073C378.504 152.661 374.126 157.958 371.661 164.202C368.939 171.145 368.502 178.714 368.971 186.09C369.254 190.55 369.857 194.981 370.461 199.407C370.509 199.607 370.479 199.818 370.378 199.997C370.277 200.176 370.111 200.309 369.915 200.371C369.716 200.425 369.503 200.397 369.323 200.295C369.143 200.192 369.01 200.023 368.954 199.823L368.954 199.824Z" fill="#F2F2F2"/>
<path d="M376.874 186.925C378.01 188.658 379.573 190.068 381.411 191.02C383.249 191.972 385.301 192.433 387.368 192.358C392.682 192.105 397.111 188.388 401.097 184.857L412.889 174.415L405.085 174.041C399.472 173.771 393.715 173.518 388.369 175.256C383.023 176.994 378.093 181.169 377.116 186.718" fill="#E6E6E6"/>
<path d="M365.843 204.445C371.141 195.046 377.285 184.599 388.264 181.26C391.316 180.335 394.517 180.003 397.694 180.283C398.695 180.37 398.445 181.918 397.446 181.832C392.121 181.388 386.806 182.798 382.397 185.824C378.153 188.721 374.849 192.748 372.053 197.018C370.34 199.634 368.806 202.361 367.271 205.084C366.781 205.954 365.347 205.326 365.843 204.445Z" fill="#F2F2F2"/>
<path d="M317.954 31.4801C317.396 31.2361 316.946 30.7946 316.691 30.2397C316.436 29.6848 316.393 29.0552 316.571 28.4707C316.6 28.3811 316.618 28.2884 316.625 28.1946C316.641 27.9268 316.571 27.6609 316.425 27.4362C316.278 27.2116 316.064 27.0401 315.813 26.9473C315.562 26.8544 315.288 26.8451 315.031 26.9207C314.774 26.9963 314.549 27.1528 314.388 27.3671C314.332 27.4431 314.286 27.5253 314.25 27.6122C314.007 28.1724 313.567 28.6234 313.013 28.8792C312.46 29.1351 311.832 29.1779 311.249 28.9997C311.16 28.9708 311.067 28.9526 310.974 28.9455C310.707 28.9292 310.442 28.9996 310.218 29.1463C309.994 29.2929 309.823 29.508 309.73 29.7597C309.638 30.0114 309.628 30.2863 309.704 30.5437C309.779 30.8011 309.935 31.0273 310.149 31.1888C310.224 31.2443 310.307 31.2907 310.393 31.3269C310.952 31.5709 311.401 32.0124 311.657 32.5673C311.912 33.1222 311.954 33.7518 311.777 34.3363C311.748 34.4259 311.73 34.5186 311.723 34.6125C311.706 34.8802 311.777 35.1462 311.923 35.3708C312.069 35.5955 312.284 35.7669 312.535 35.8598C312.786 35.9526 313.06 35.9619 313.316 35.8863C313.573 35.8107 313.799 35.6542 313.96 35.44C314.015 35.364 314.061 35.2817 314.097 35.1948C314.341 34.6346 314.781 34.1836 315.334 33.9278C315.888 33.672 316.515 33.6291 317.098 33.8074C317.188 33.8362 317.28 33.8544 317.374 33.8615C317.641 33.8778 317.906 33.8074 318.13 33.6608C318.354 33.5142 318.525 33.2991 318.617 33.0474C318.71 32.7957 318.719 32.5208 318.644 32.2634C318.568 32.006 318.412 31.7797 318.199 31.6182C318.123 31.5627 318.041 31.5164 317.954 31.4801Z" fill="#CBCBCB"/>
<path d="M365.254 141.934C364.695 141.69 364.246 141.249 363.99 140.694C363.735 140.139 363.693 139.509 363.87 138.925C363.899 138.835 363.917 138.743 363.924 138.649C363.941 138.381 363.87 138.115 363.724 137.89C363.578 137.666 363.363 137.494 363.112 137.401C362.862 137.309 362.587 137.299 362.331 137.375C362.074 137.45 361.848 137.607 361.687 137.821C361.632 137.897 361.586 137.979 361.55 138.066C361.306 138.627 360.866 139.078 360.313 139.333C359.759 139.589 359.132 139.632 358.549 139.454C358.459 139.425 358.367 139.407 358.273 139.4C358.006 139.383 357.741 139.454 357.517 139.6C357.293 139.747 357.122 139.962 357.03 140.214C356.937 140.465 356.928 140.74 357.003 140.998C357.079 141.255 357.235 141.481 357.448 141.643C357.524 141.698 357.606 141.745 357.693 141.781C358.251 142.025 358.701 142.467 358.956 143.021C359.211 143.576 359.254 144.206 359.076 144.79C359.047 144.88 359.029 144.973 359.022 145.067C359.006 145.334 359.076 145.6 359.222 145.825C359.369 146.05 359.583 146.221 359.834 146.314C360.085 146.407 360.359 146.416 360.616 146.34C360.873 146.265 361.098 146.108 361.259 145.894C361.315 145.818 361.361 145.736 361.397 145.649C361.64 145.089 362.08 144.638 362.634 144.382C363.187 144.126 363.815 144.083 364.398 144.261C364.487 144.29 364.58 144.309 364.673 144.316C364.94 144.332 365.205 144.262 365.429 144.115C365.653 143.968 365.824 143.753 365.917 143.501C366.01 143.25 366.019 142.975 365.943 142.717C365.868 142.46 365.712 142.234 365.498 142.072C365.423 142.017 365.34 141.97 365.254 141.934Z" fill="#F1F1F1"/>
<path d="M117.269 77.5592C116.71 77.3152 116.26 76.8738 116.005 76.3188C115.75 75.7639 115.707 75.1343 115.885 74.5498C115.914 74.4602 115.932 74.3675 115.939 74.2737C115.955 74.0059 115.885 73.74 115.739 73.5153C115.593 73.2907 115.378 73.1192 115.127 73.0264C114.876 72.9335 114.602 72.9242 114.346 72.9998C114.089 73.0754 113.863 73.2319 113.702 73.4462C113.647 73.5222 113.601 73.6044 113.565 73.6913C113.321 74.2515 112.881 74.7025 112.328 74.9583C111.774 75.2142 111.147 75.257 110.564 75.0788C110.474 75.0499 110.382 75.0317 110.288 75.0246C110.021 75.0083 109.756 75.0787 109.532 75.2254C109.308 75.372 109.137 75.5871 109.045 75.8388C108.952 76.0905 108.943 76.3654 109.018 76.6228C109.094 76.8802 109.25 77.1064 109.463 77.2679C109.539 77.3234 109.621 77.3698 109.708 77.4061C110.266 77.65 110.716 78.0915 110.971 78.6464C111.226 79.2014 111.269 79.831 111.091 80.4154C111.062 80.505 111.044 80.5977 111.037 80.6916C111.021 80.9594 111.091 81.2253 111.237 81.4499C111.384 81.6746 111.598 81.846 111.849 81.9389C112.1 82.0317 112.374 82.041 112.631 81.9654C112.887 81.8898 113.113 81.7333 113.274 81.5191C113.329 81.4431 113.376 81.3608 113.412 81.2739C113.655 80.7137 114.095 80.2628 114.649 80.0069C115.202 79.7511 115.83 79.7082 116.413 79.8865C116.502 79.9153 116.594 79.9335 116.688 79.9406C116.955 79.9569 117.22 79.8866 117.444 79.7399C117.668 79.5933 117.839 79.3782 117.932 79.1265C118.024 78.8748 118.034 78.5999 117.958 78.3425C117.883 78.0851 117.727 77.8588 117.513 77.6973C117.437 77.6418 117.355 77.5955 117.269 77.5592Z" fill="#F1F1F1"/>
<path d="M220.723 37.9473C222.962 37.9473 224.777 36.1269 224.777 33.8815C224.777 31.636 222.962 29.8157 220.723 29.8157C218.484 29.8157 216.669 31.636 216.669 33.8815C216.669 36.1269 218.484 37.9473 220.723 37.9473Z" fill="#2F2E41"/>
<path d="M436.95 27.1052C439.189 27.1052 441.004 25.2849 441.004 23.0394C441.004 20.7939 439.189 18.9736 436.95 18.9736C434.711 18.9736 432.896 20.7939 432.896 23.0394C432.896 25.2849 434.711 27.1052 436.95 27.1052Z" fill="#FEC360"/>
<path d="M122.069 8.13158C124.308 8.13158 126.124 6.31126 126.124 4.06579C126.124 1.82032 124.308 0 122.069 0C119.83 0 118.015 1.82032 118.015 4.06579C118.015 6.31126 119.83 8.13158 122.069 8.13158Z" fill="#A12568"/>
<path d="M106.478 192.915C122.55 192.915 135.579 179.849 135.579 163.732C135.579 147.614 122.55 134.548 106.478 134.548C90.4061 134.548 77.3772 147.614 77.3772 163.732C77.3772 179.849 90.4061 192.915 106.478 192.915Z" fill="#2F2E41"/>
<path d="M102.058 186.635H93.217V202.52H102.058V186.635Z" fill="#2F2E41"/>
<path d="M119.739 186.635H110.899V202.52H119.739V186.635Z" fill="#2F2E41"/>
<path d="M100.584 205.476C104.653 205.476 107.952 204.235 107.952 202.705C107.952 201.175 104.653 199.934 100.584 199.934C96.5154 199.934 93.2169 201.175 93.2169 202.705C93.2169 204.235 96.5154 205.476 100.584 205.476Z" fill="#2F2E41"/>
<path d="M118.266 205.106C122.335 205.106 125.633 203.866 125.633 202.336C125.633 200.805 122.335 199.565 118.266 199.565C114.197 199.565 110.899 200.805 110.899 202.336C110.899 203.866 114.197 205.106 118.266 205.106Z" fill="#2F2E41"/>
<path d="M137.838 150.979C144.14 144.654 147.644 137.918 145.664 135.934C143.684 133.95 136.97 137.469 130.667 143.794C124.365 150.119 120.861 156.855 122.841 158.839C124.821 160.823 131.535 157.304 137.838 150.979Z" fill="#2F2E41"/>
<path d="M83.0219 160.872C85.0019 158.888 81.498 152.152 75.1957 145.827C68.8933 139.502 62.1792 135.983 60.1991 137.967C58.2191 139.951 61.7231 146.687 68.0254 153.012C74.3277 159.337 81.0419 162.856 83.0219 160.872Z" fill="#2F2E41"/>
<path d="M105.254 169.57C110.747 169.57 115.2 165.104 115.2 159.596C115.2 154.087 110.747 149.622 105.254 149.622C99.7608 149.622 95.3079 154.087 95.3079 159.596C95.3079 165.104 99.7608 169.57 105.254 169.57Z" fill="white"/>
<path d="M105.254 162.921C107.085 162.921 108.569 161.432 108.569 159.596C108.569 157.76 107.085 156.271 105.254 156.271C103.423 156.271 101.938 157.76 101.938 159.596C101.938 161.432 103.423 162.921 105.254 162.921Z" fill="#3F3D56"/>
<path d="M113.149 178.043C113.456 179.735 113.081 181.481 112.104 182.896C111.128 184.31 109.632 185.278 107.944 185.586C106.256 185.894 104.516 185.517 103.105 184.539C101.694 183.56 100.729 182.059 100.422 180.366L100.42 180.354C99.7833 176.829 102.501 175.581 106.016 174.943C109.531 174.305 112.513 174.518 113.149 178.043Z" fill="white"/>
<path d="M135.013 194.361C134.358 194.361 133.73 194.623 133.267 195.087C132.804 195.552 132.544 196.181 132.543 196.838V202.014C132.544 202.67 132.804 203.3 133.267 203.765C133.73 204.229 134.358 204.49 135.013 204.491H174.765C175.42 204.49 176.048 204.229 176.511 203.765C176.975 203.3 177.235 202.67 177.236 202.014V196.838C177.235 196.181 176.975 195.552 176.511 195.087C176.048 194.623 175.42 194.361 174.765 194.361H135.013Z" fill="#E5E5E5"/>
<path d="M157.874 190.914C157.628 190.772 157.335 190.733 157.061 190.807C156.787 190.881 156.553 191.061 156.41 191.307L154.933 193.873L153.486 191.004C153.357 190.75 153.134 190.557 152.864 190.468C152.594 190.38 152.299 190.402 152.046 190.531C151.792 190.659 151.6 190.884 151.512 191.154C151.423 191.425 151.445 191.72 151.574 191.974L152.7 194.207H152.287V204.645H157.797V194.207H157.215L158.266 192.382C158.408 192.135 158.447 191.842 158.373 191.566C158.3 191.291 158.12 191.057 157.874 190.914Z" fill="#A12568"/>
<path d="M105.729 144.59C100.558 144.584 95.4179 143.797 90.4815 142.254C90.1385 142.143 89.8393 141.926 89.6266 141.634C89.414 141.342 89.2988 140.99 89.2975 140.629V128.75C89.298 128.301 89.4762 127.87 89.7928 127.553C90.1095 127.235 90.5389 127.056 90.9868 127.056H120.718C121.166 127.056 121.595 127.235 121.912 127.553C122.229 127.87 122.407 128.301 122.407 128.75V140.622C122.407 140.987 122.291 141.341 122.074 141.634C121.858 141.927 121.553 142.142 121.205 142.248C116.189 143.785 110.974 144.574 105.729 144.59Z" fill="#FEC360"/>
<path opacity="0.2" d="M122.069 128.75V130.735L105.981 136.394C105.68 136.498 105.352 136.493 105.055 136.38L89.6354 130.573V128.75C89.6364 128.391 89.7791 128.047 90.0323 127.793C90.2855 127.539 90.6287 127.396 90.9868 127.395H120.718C121.076 127.396 121.419 127.539 121.672 127.793C121.926 128.047 122.068 128.391 122.069 128.75Z" fill="black"/>
<path d="M105.53 134.098C105.328 134.098 105.127 134.061 104.937 133.99L81.8944 125.313C81.5686 125.19 81.2885 124.97 81.0925 124.681C80.8964 124.393 80.794 124.051 80.7991 123.702C80.8043 123.353 80.9168 123.014 81.1212 122.732C81.3257 122.449 81.6121 122.237 81.9414 122.124L103.622 114.686C103.972 114.567 104.351 114.566 104.703 114.682L128.9 122.77C129.234 122.882 129.525 123.096 129.732 123.382C129.939 123.668 130.052 124.011 130.055 124.365C130.058 124.718 129.95 125.063 129.747 125.352C129.545 125.641 129.257 125.859 128.924 125.976L106.089 134.003C105.91 134.066 105.721 134.098 105.53 134.098Z" fill="#FEC360"/>
<path d="M84.5677 133.493H83.892V123.668H104.501V124.345H84.5677V133.493Z" fill="#3F3D56"/>
<path d="M84.2297 135.526C84.9761 135.526 85.5811 134.92 85.5811 134.171C85.5811 133.423 84.9761 132.816 84.2297 132.816C83.4833 132.816 82.8783 133.423 82.8783 134.171C82.8783 134.92 83.4833 135.526 84.2297 135.526Z" fill="#3F3D56"/>
<path d="M274.73 192.915C290.802 192.915 303.831 179.849 303.831 163.732C303.831 147.614 290.802 134.548 274.73 134.548C258.658 134.548 245.629 147.614 245.629 163.732C245.629 179.849 258.658 192.915 274.73 192.915Z" fill="#2F2E41"/>
<path d="M270.309 186.635H261.469V202.52H270.309V186.635Z" fill="#2F2E41"/>
<path d="M287.991 186.635H279.15V202.52H287.991V186.635Z" fill="#2F2E41"/>
<path d="M268.836 205.476C272.905 205.476 276.203 204.235 276.203 202.705C276.203 201.175 272.905 199.934 268.836 199.934C264.767 199.934 261.469 201.175 261.469 202.705C261.469 204.235 264.767 205.476 268.836 205.476Z" fill="#2F2E41"/>
<path d="M286.518 205.106C290.586 205.106 293.885 203.866 293.885 202.336C293.885 200.805 290.586 199.565 286.518 199.565C282.449 199.565 279.15 200.805 279.15 202.336C279.15 203.866 282.449 205.106 286.518 205.106Z" fill="#2F2E41"/>
<path d="M306.089 150.979C312.391 144.654 315.895 137.918 313.915 135.934C311.935 133.95 305.221 137.469 298.919 143.794C292.616 150.119 289.112 156.855 291.092 158.839C293.072 160.823 299.787 157.304 306.089 150.979Z" fill="#2F2E41"/>
<path d="M248.755 178.068C253.84 170.723 256.099 163.472 253.8 161.871C251.501 160.27 245.514 164.926 240.429 172.27C235.344 179.615 233.085 186.867 235.384 188.468C237.683 190.069 243.67 185.413 248.755 178.068Z" fill="#2F2E41"/>
<path d="M273.505 169.57C278.998 169.57 283.451 165.104 283.451 159.596C283.451 154.087 278.998 149.622 273.505 149.622C268.012 149.622 263.559 154.087 263.559 159.596C263.559 165.104 268.012 169.57 273.505 169.57Z" fill="white"/>
<path d="M276.884 159.533C278.715 159.533 280.199 158.044 280.199 156.208C280.199 154.372 278.715 152.883 276.884 152.883C275.053 152.883 273.569 154.372 273.569 156.208C273.569 158.044 275.053 159.533 276.884 159.533Z" fill="#3F3D56"/>
<path d="M285.43 178.043C286.405 181.567 282.852 184.945 277.492 185.586C272.132 186.228 266.996 183.891 266.021 180.366L266.017 180.354C265.047 176.829 269.191 175.581 274.552 174.943C279.913 174.305 284.459 174.518 285.43 178.043Z" fill="white"/>
<path d="M264.547 146.556C259.748 148.485 254.686 149.678 249.532 150.093C249.172 150.118 248.814 150.029 248.508 149.838C248.202 149.647 247.965 149.363 247.829 149.029L243.41 138.007C243.243 137.59 243.248 137.124 243.424 136.711C243.6 136.298 243.932 135.971 244.347 135.803L271.932 124.68C272.348 124.513 272.812 124.518 273.224 124.694C273.636 124.87 273.962 125.203 274.129 125.62L278.546 136.635C278.682 136.973 278.705 137.346 278.613 137.699C278.522 138.051 278.319 138.365 278.036 138.593C273.953 141.896 269.408 144.579 264.547 146.556Z" fill="#2A0944"/>
<path opacity="0.2" d="M273.816 125.746L274.554 127.588L261.732 138.857C261.492 139.066 261.186 139.184 260.868 139.191L244.401 139.572L243.723 137.881C243.591 137.547 243.595 137.174 243.736 136.844C243.876 136.514 244.141 136.253 244.473 136.118L272.058 124.994C272.39 124.861 272.762 124.866 273.091 125.007C273.421 125.148 273.681 125.413 273.816 125.746Z" fill="black"/>
<path d="M260.46 136.896C260.272 136.971 260.072 137.013 259.869 137.018L235.263 137.588C234.915 137.596 234.573 137.496 234.284 137.302C233.995 137.108 233.772 136.829 233.647 136.503C233.522 136.177 233.501 135.821 233.585 135.482C233.67 135.144 233.857 134.84 234.12 134.612L251.468 119.6C251.749 119.358 252.1 119.215 252.469 119.191L277.929 117.643C278.28 117.622 278.63 117.711 278.928 117.899C279.227 118.086 279.459 118.363 279.593 118.69C279.727 119.017 279.756 119.377 279.676 119.721C279.595 120.065 279.409 120.375 279.144 120.608L260.943 136.598C260.8 136.724 260.637 136.824 260.46 136.896Z" fill="#2A0944"/>
<path d="M240.786 144.177L240.159 144.43L236.504 135.314L255.625 127.603L255.878 128.232L237.383 135.69L240.786 144.177Z" fill="#3F3D56"/>
<path d="M240.725 146.288C241.471 146.288 242.076 145.681 242.076 144.933C242.076 144.184 241.471 143.577 240.725 143.577C239.978 143.577 239.373 144.184 239.373 144.933C239.373 145.681 239.978 146.288 240.725 146.288Z" fill="#3F3D56"/>
<path d="M385.517 94.7796C381.131 92.0344 377.182 88.6413 373.805 84.7148C373.572 84.4388 373.433 84.0961 373.406 83.7356C373.379 83.3752 373.467 83.0156 373.656 82.7081L379.917 72.6239C380.154 72.2429 380.532 71.9718 380.968 71.87C381.405 71.7683 381.863 71.8442 382.244 72.0811L407.483 87.8401C407.863 88.0779 408.133 88.4572 408.234 88.8946C408.336 89.3321 408.26 89.792 408.024 90.1736L401.767 100.252C401.575 100.561 401.289 100.801 400.951 100.935C400.612 101.068 400.24 101.09 399.889 100.995C394.821 99.6409 389.978 97.5467 385.517 94.7796Z" fill="#A12568"/>
<path opacity="0.2" d="M407.737 89.9946L406.691 91.68L390.051 87.9556C389.741 87.8845 389.465 87.7068 389.272 87.4534L379.243 74.3504L380.204 72.803C380.394 72.4987 380.696 72.2822 381.045 72.2009C381.394 72.1195 381.761 72.1799 382.065 72.3688L407.304 88.1278C407.608 88.3185 407.823 88.6218 407.905 88.9716C407.986 89.3214 407.925 89.6891 407.737 89.9946Z" fill="black"/>
<path d="M390.879 85.7678C390.707 85.6604 390.555 85.5229 390.431 85.3618L375.444 65.7824C375.232 65.5055 375.11 65.1698 375.096 64.8211C375.082 64.4724 375.175 64.1277 375.363 63.8342C375.551 63.5407 375.825 63.3127 376.148 63.1813C376.47 63.0499 376.825 63.0216 377.164 63.1002L399.489 68.2776C399.849 68.3623 400.172 68.562 400.409 68.8466L416.687 88.539C416.912 88.811 417.046 89.1467 417.072 89.4991C417.097 89.8515 417.011 90.203 416.827 90.5044C416.644 90.8058 416.37 91.0419 416.046 91.1798C415.722 91.3177 415.362 91.3505 415.018 91.2735L391.403 85.9833C391.217 85.9416 391.04 85.8687 390.879 85.7678Z" fill="#A12568"/>
<path d="M373.402 74.1435L372.828 73.7851L378.007 65.4441L395.502 76.3682L395.144 76.9428L378.223 66.3772L373.402 74.1435Z" fill="#3F3D56"/>
<path d="M372.758 75.8949C373.504 75.8949 374.109 75.2881 374.109 74.5396C374.109 73.7911 373.504 73.1843 372.758 73.1843C372.011 73.1843 371.406 73.7911 371.406 74.5396C371.406 75.2881 372.011 75.8949 372.758 75.8949Z" fill="#3F3D56"/>
<path d="M455.92 159.711C471.992 159.711 485.021 146.645 485.021 130.528C485.021 114.41 471.992 101.344 455.92 101.344C439.848 101.344 426.819 114.41 426.819 130.528C426.819 146.645 439.848 159.711 455.92 159.711Z" fill="#2F2E41"/>
<path d="M476.094 145.66L468.55 150.283L476.81 163.837L484.354 159.214L476.094 145.66Z" fill="#2F2E41"/>
<path d="M461.007 154.906L453.463 159.53L461.723 173.084L469.267 168.46L461.007 154.906Z" fill="#2F2E41"/>
<path d="M479.605 165.588C483.076 163.46 485.246 160.677 484.45 159.371C483.654 158.066 480.195 158.732 476.723 160.86C473.251 162.988 471.082 165.771 471.877 167.077C472.673 168.383 476.133 167.716 479.605 165.588Z" fill="#2F2E41"/>
<path d="M464.325 174.52C467.797 172.392 469.967 169.609 469.171 168.303C468.375 166.997 464.916 167.664 461.444 169.792C457.972 171.92 455.802 174.703 456.598 176.009C457.394 177.314 460.853 176.648 464.325 174.52Z" fill="#2F2E41"/>
<path d="M439.557 125.635C441.537 123.651 438.033 116.915 431.731 110.59C425.428 104.265 418.714 100.746 416.734 102.73C414.754 104.714 418.258 111.45 424.56 117.775C430.863 124.1 437.577 127.619 439.557 125.635Z" fill="#2F2E41"/>
<path d="M495.265 155.264C497.564 153.663 495.306 146.411 490.22 139.067C485.135 131.722 479.148 127.066 476.849 128.667C474.55 130.268 476.809 137.52 481.894 144.864C486.98 152.209 492.966 156.865 495.265 155.264Z" fill="#2F2E41"/>
<path d="M447.008 132.3C452.501 132.3 456.954 127.835 456.954 122.326C456.954 116.818 452.501 112.352 447.008 112.352C441.515 112.352 437.062 116.818 437.062 122.326C437.062 127.835 441.515 132.3 447.008 132.3Z" fill="white"/>
<path d="M443.63 122.263C445.461 122.263 446.945 120.774 446.945 118.938C446.945 117.102 445.461 115.613 443.63 115.613C441.799 115.613 440.314 117.102 440.314 118.938C440.314 120.774 441.799 122.263 443.63 122.263Z" fill="#3F3D56"/>
<path d="M434.201 138.964C432.315 142.063 434.827 146.255 439.813 148.328C444.799 150.4 450.37 149.568 452.256 146.469L452.262 146.458C454.144 143.358 450.49 141.038 445.502 138.968C440.515 136.899 436.082 135.863 434.201 138.964Z" fill="white"/>
<path d="M446.155 93.884C448.753 83.3895 460.224 77.2137 471.774 80.09C483.325 82.9663 490.582 93.8055 487.984 104.3C485.385 114.794 476.764 114.828 465.214 111.952C453.663 109.076 443.556 104.378 446.155 93.884Z" fill="#E6E6E6"/>
<path d="M547.324 206H0.675709C0.4965 206 0.32463 205.929 0.19791 205.802C0.0711901 205.674 0 205.502 0 205.322C0 205.143 0.0711901 204.97 0.19791 204.843C0.32463 204.716 0.4965 204.645 0.675709 204.645H547.324C547.503 204.645 547.675 204.716 547.802 204.843C547.929 204.97 548 205.143 548 205.322C548 205.502 547.929 205.674 547.802 205.802C547.675 205.929 547.503 206 547.324 206Z" fill="#CBCBCB"/>
</g>
<defs>
<clipPath id="clip0_18:179">
<rect width="548" height="206" fill="white"/>
</clipPath>
</defs>
</svg>
