<svg width="127" height="31" viewBox="0 0 127 31" fill="none" xmlns="http://www.w3.org/2000/svg">
<path d="M22.96 6.84L15.48 23.68H11.72L4.2 6.84V30H0.6V2H5.92L13.68 19.72L21.32 2H26.76V30H22.96V6.84ZM32.1594 19.72C32.1594 18.1733 32.3994 16.7333 32.8794 15.4C33.3594 14.04 34.026 12.8667 34.8794 11.88C35.7594 10.8933 36.7994 10.12 37.9994 9.56C39.226 9 40.5594 8.72 41.9994 8.72C43.1994 8.72 44.2794 8.93333 45.2394 9.36C46.226 9.76 47.0794 10.2667 47.7994 10.88V9.2H51.0794V24.96C51.0794 25.9733 51.3194 26.64 51.7994 26.96C52.306 27.2533 52.8527 27.4 53.4394 27.4L52.6794 30.2C50.1194 30.2 48.5727 29.16 48.0394 27.08C47.7194 27.5067 47.346 27.9333 46.9194 28.36C46.5194 28.76 46.0527 29.12 45.5194 29.44C44.986 29.76 44.386 30.0133 43.7194 30.2C43.0527 30.3867 42.3194 30.48 41.5194 30.48C40.2127 30.48 38.986 30.2267 37.8394 29.72C36.7194 29.2133 35.7327 28.4933 34.8794 27.56C34.0527 26.6267 33.386 25.5067 32.8794 24.2C32.3994 22.8667 32.1594 21.3733 32.1594 19.72ZM42.3194 27.28C43.3327 27.28 44.2927 27.04 45.1994 26.56C46.106 26.08 46.866 25.4533 47.4794 24.68V13.52C46.7594 13.0133 45.9594 12.6133 45.0794 12.32C44.226 12 43.3194 11.84 42.3594 11.84C41.3994 11.84 40.5194 12.0267 39.7194 12.4C38.9194 12.7733 38.226 13.3067 37.6394 14C37.0794 14.6667 36.6394 15.48 36.3194 16.44C35.9994 17.4 35.8394 18.4533 35.8394 19.6C35.8394 20.72 35.9994 21.76 36.3194 22.72C36.6394 23.6533 37.0927 24.4667 37.6794 25.16C38.266 25.8267 38.946 26.3467 39.7194 26.72C40.5194 27.0933 41.386 27.28 42.3194 27.28ZM59.8869 3.4H62.6469V9.96H68.4069V13.08H62.6469V23.12C62.6469 23.8933 62.7269 24.5467 62.8869 25.08C63.0735 25.6133 63.3135 26.04 63.6069 26.36C63.9002 26.68 64.2469 26.92 64.6469 27.08C65.0735 27.2133 65.5135 27.28 65.9669 27.28C66.6335 27.28 67.2602 27.1733 67.8469 26.96C68.4335 26.7467 68.9935 26.4933 69.5269 26.2L70.5269 29.08C69.9935 29.4 69.2735 29.7067 68.3669 30C67.4602 30.32 66.5135 30.48 65.5269 30.48C63.5269 30.48 61.9402 29.8267 60.7669 28.52C59.6202 27.2133 59.0469 25.32 59.0469 22.84V13.08H55.4469V9.96H59.1269L59.8869 3.4ZM77.7453 12.52C78.492 11.4267 79.4253 10.52 80.5453 9.8C81.692 9.08 83.052 8.72 84.6253 8.72C86.972 8.72 88.7186 9.42667 89.8653 10.84C91.0386 12.2533 91.6253 14.12 91.6253 16.44V30H88.0253V16.84C88.0253 15.32 87.6786 14.12 86.9853 13.24C86.3186 12.3333 85.3453 11.88 84.0653 11.88C83.452 11.88 82.8386 12 82.2253 12.24C81.6386 12.4533 81.0786 12.76 80.5453 13.16C80.012 13.56 79.5053 14.0267 79.0253 14.56C78.5453 15.0933 78.1186 15.6533 77.7453 16.24V30H74.1453V0.4H77.7453V12.52Z" fill="white"/>
<path d="M104.417 15.76L95.4172 4L98.5772 1.64L106.697 13L114.737 1.76L117.697 4L108.977 15.56L118.497 28.04L115.417 30.4L106.577 18.4L98.0172 30.32L95.0172 28.04L104.417 15.76Z" fill="white"/>
<path d="M104.417 15.76L95.4172 4L98.5772 1.64L106.697 13L114.737 1.76L117.697 4L108.977 15.56L118.497 28.04L115.417 30.4L106.577 18.4L98.0172 30.32L95.0172 28.04L104.417 15.76Z" fill="#FEC260" fill-opacity="0.67"/>
<path d="M121.902 28.02C121.902 27.276 122.106 26.688 122.514 26.256C122.946 25.824 123.546 25.608 124.314 25.608C124.938 25.608 125.49 25.848 125.97 26.328C126.474 26.808 126.726 27.372 126.726 28.02C126.726 28.74 126.498 29.328 126.042 29.784C125.586 30.216 125.01 30.432 124.314 30.432C123.666 30.432 123.102 30.192 122.622 29.712C122.142 29.232 121.902 28.668 121.902 28.02Z" fill="#A12568"/>
</svg>
